<?xml version="1.0"?>
<svg width="640" height="480" xmlns="http://www.w3.org/2000/svg" xmlns:svg="http://www.w3.org/2000/svg">
 <!-- Created with SVG-edit - https://github.com/SVG-Edit/svgedit-->
 <g class="layer">
  <title>Layer 1</title>
  <path d="m55.67,55.67c-0.86,1.41 -1.6,1.82 -2.24,2.66c-0.4,0.52 -0.86,1.54 -1.17,2.16c-0.35,0.69 -0.92,1.82 -1.24,2.49c-0.34,0.72 -0.71,1.48 -1.02,2.69c-0.2,0.79 -0.28,1.6 -0.31,2.4c-0.03,0.8 -0.03,2 -0.02,2.8c0.01,0.78 0.01,1.55 0.16,2.64c0.09,0.69 0.35,1.65 0.54,2.26c0.38,1.21 0.57,1.81 0.9,2.63c0.46,1.15 0.86,1.77 1.6,2.47c0.57,0.55 1.42,0.8 2.23,1.24c0.64,0.34 1.62,0.78 2.28,0.95c0.72,0.19 1.49,0.36 2.69,0.49c0.8,0.09 1.6,0.11 2.4,0.12c1.2,0.01 2,0 2.82,0c0.85,0 1.75,0 2.71,0c1.04,0 1.58,0 2.71,-0.04c0.58,-0.02 1.17,-0.02 2.96,-0.29c0.6,-0.09 1.2,-0.22 2.38,-0.53c0.58,-0.15 1.15,-0.32 2.25,-0.66c1.04,-0.31 2,-0.6 2.91,-0.86c0.44,-0.13 1.32,-0.36 2.63,-0.79c0.92,-0.3 1.39,-0.49 2.35,-0.83c0.49,-0.18 1.48,-0.53 2.48,-0.83c0.99,-0.3 1.49,-0.41 2.46,-0.65c0.93,-0.22 2.21,-0.51 2.97,-0.72c0.7,-0.19 1.35,-0.4 2.57,-0.8c0.6,-0.2 1.5,-0.5 2.1,-0.7c1.2,-0.4 1.8,-0.61 2.74,-0.9c0.65,-0.2 1.68,-0.51 2.42,-0.7c0.75,-0.19 1.86,-0.45 2.93,-0.58c0.65,-0.08 1.54,-0.12 2.68,-0.12c0.72,0 1.66,-0.02 2.63,0c0.73,0.02 1.73,0.18 2.34,0.46c0.71,0.32 1.82,1.08 2.49,1.56c0.36,0.26 1.11,0.81 1.89,1.39c0.8,0.6 1.6,1.2 2.4,1.8c0.4,0.3 1.2,0.9 1.6,1.2c1.2,0.9 2,1.5 2.4,1.81c0.8,0.62 1.21,0.93 2.4,1.96c0.4,0.35 1.2,1.09 1.6,1.48c0.81,0.79 1.2,1.21 1.6,1.64c1.22,1.32 1.6,1.8 2,2.27c0.4,0.47 1.2,1.42 1.6,1.89c0.4,0.47 1.6,1.83 2,2.27c0.39,0.43 1.17,1.26 1.53,1.67c0.71,0.8 1.36,1.59 1.9,2.41c0.51,0.78 0.93,1.6 1.11,2c0.53,1.19 0.79,2 1.03,2.79c0.23,0.77 0.43,1.53 0.74,2.59c0.29,1 0.52,1.64 0.73,2.99c0.11,0.71 0.14,1.46 0.16,2.21c0.02,0.74 0.02,2.14 0,2.79c-0.03,0.93 -0.12,1.84 -0.35,2.73c-0.22,0.88 -0.41,1.43 -0.84,2.42c-0.37,0.85 -0.87,1.69 -1.44,2.31c-0.66,0.72 -1.18,1.24 -1.83,1.72c-0.92,0.69 -1.78,1.01 -2.31,1.31c-1.09,0.62 -1.56,1.09 -1.99,1.6c-0.66,0.77 -1.22,1.59 -1.84,2.28c-0.58,0.66 -0.99,1.06 -1.8,1.86c-0.61,0.6 -1.27,1.22 -2.02,1.8c-0.8,0.63 -1.4,1.03 -1.98,1.49c-0.91,0.72 -1.5,1.27 -2.1,1.81c-0.6,0.55 -1.49,1.34 -2.1,1.81c-0.59,0.46 -1.2,0.88 -2.4,1.69c-0.6,0.4 -1.21,0.81 -1.84,1.2c-0.65,0.41 -1.68,1.01 -2.42,1.4c-0.76,0.41 -1.55,0.8 -1.94,1c-1.2,0.6 -1.99,1 -2.76,1.38c-0.73,0.36 -1.71,0.85 -2.53,1.26c-0.69,0.35 -1.72,0.85 -2.3,1.16c-0.73,0.39 -1.64,0.96 -2.21,1.77c-0.44,0.62 -0.72,1.35 -1,2.33c-0.23,0.82 -0.52,1.52 -1,2.5c-0.39,0.8 -0.75,1.38 -0.91,2.4c-0.13,0.79 0.1,1.81 0.43,2.6c0.43,1.02 0.74,1.62 1.24,2.4c0.52,0.83 1.1,1.39 1.59,2.06c0.68,0.93 0.88,1.51 1.31,2.32c0.29,0.55 1.09,1.56 1.6,1.99c0.77,0.66 1.58,1.23 2.28,1.83c0.44,0.38 1.04,0.94 2.05,1.65c0.56,0.39 1.41,1.06 1.88,1.75c0.55,0.81 1.01,1.53 1.69,2c0.78,0.54 1.59,0.88 2.28,1.44c0.72,0.57 1.36,1.02 2.15,1.28c0.98,0.32 1.86,0.3 2.82,0.51c0.82,0.17 1.38,0.41 2.58,0.61c0.9,0.15 1.52,0.15 2.49,0.25c1.04,0.11 1.77,0.27 2.51,0.42c0.75,0.15 1.83,0.36 2.85,0.44c0.65,0.05 1.64,0.06 2.67,0.06c0.73,0 1.46,0 2.51,0c0.93,0 1.95,0 2.65,0c1,0 1.84,0 2.72,0c0.9,0 1.81,-0.04 2.7,0.11c0.91,0.16 1.81,0.59 2.4,0.93c0.61,0.35 1.8,1.17 2.4,1.55c0.61,0.39 1.23,0.79 2.26,1.24c0.7,0.31 1.44,0.52 2.47,0.86c0.87,0.29 1.69,0.69 2.25,1.19c0.81,0.73 1.33,1.29 1.95,2.11c0.43,0.58 0.89,1.38 1.08,2.4c0.14,0.79 0.09,1.8 0.09,2.6c0,1 0,1.82 0,2.51c0,1.13 0,1.8 0,2.53c0,0.77 0,1.96 0,2.76c0,1.18 0,1.94 0,3.03c0,0.68 0,1.67 -0.06,2.32c-0.08,1.02 -0.29,2.11 -0.48,2.89c-0.1,0.41 -0.33,1.25 -0.78,2.58c-0.16,0.46 -0.51,1.41 -0.89,2.35c-0.19,0.47 -0.79,1.86 -0.99,2.3c-0.4,0.86 -0.8,1.69 -1.26,2.46c-0.67,1.12 -0.95,1.45 -1.5,2.1c-0.54,0.65 -1.11,1.24 -1.88,2.16c-0.49,0.59 -0.92,1.19 -1.56,2.04c-0.6,0.8 -1.2,1.51 -1.63,1.94c-0.65,0.64 -1.66,1.42 -2.2,1.82c-0.55,0.4 -1.61,1.19 -2.09,1.6c-0.69,0.59 -1.36,1.22 -2.11,1.8c-0.52,0.41 -1.35,0.97 -1.89,1.31c-0.99,0.62 -1.7,0.93 -2.68,1.65c-0.62,0.45 -1.17,1.04 -2,1.67c-0.58,0.44 -1.43,0.88 -2.2,1.49c-0.61,0.48 -1.18,1.05 -1.78,1.88c-0.53,0.74 -1.03,1.45 -1.78,1.91c-0.74,0.45 -1.27,0.93 -1.84,1.5c-0.8,0.79 -1.43,1.4 -1.91,2.17c-0.53,0.84 -0.74,1.54 -0.96,2.25c-0.23,0.73 -0.51,1.81 -0.82,2.82c-0.2,0.64 -0.5,1.56 -0.8,2.46c-0.3,0.91 -0.51,1.53 -0.7,2.19c-0.41,1.39 -0.6,2.13 -0.76,2.85c-0.16,0.69 -0.37,1.89 -0.42,2.66c-0.04,0.77 -0.02,1.97 -0.02,2.64c0,1 -0.1,1.87 0.02,2.82c0.11,0.88 0.5,1.56 0.98,2.54c0.4,0.8 0.69,1.4 1.2,2.4c0.32,0.62 0.67,1.3 1.29,2.28c0.35,0.56 0.73,1.15 1.68,2.31c0.5,0.61 1.07,1.2 1.38,1.48c0.61,0.58 1.62,1.37 2.34,1.84c0.72,0.46 1.46,0.86 2.15,1.28c0.94,0.58 1.72,1.21 2.22,1.6c0.51,0.4 1.71,1.21 2.4,1.59c0.69,0.38 1.38,0.73 2.31,1.19c0.78,0.39 1.48,0.74 2.46,1.12c0.82,0.31 1.41,0.52 2.74,0.73c0.72,0.11 1.48,0.14 2.28,0.19c0.84,0.06 2.18,0.19 2.64,0.26c0.96,0.14 1.45,0.22 2.48,0.36c0.52,0.07 2.16,0.24 2.73,0.27c1.17,0.06 1.77,0.07 2.39,0.07c0.64,0.01 2.65,0.01 3.36,0.01c0.73,0 1.47,0 2.22,0c0.76,0 1.52,0 2.29,0c0.77,0 2.28,0 3.03,0c0.74,0 2.19,0 2.9,0c0.71,0 1.42,0 2.12,0c1.4,0 2.1,0 2.8,0c1.4,0 2.1,0 2.8,0c0.7,0 1.4,0 2.8,0c1.4,0 2.09,0 2.78,0c0.68,0 1.35,0 2.01,0c1.88,0 2.47,0.01 3.6,-0.01c0.54,-0.01 1.59,-0.05 2.11,-0.11c1.52,-0.17 2.01,-0.31 3,-0.6c0.49,-0.14 1.44,-0.47 2.34,-0.81c1.23,-0.46 1.96,-0.71 2.61,-1c0.61,-0.27 1.66,-1 2.11,-1.49c0.68,-0.75 1.03,-1.33 1.86,-2.3c0.39,-0.46 1,-1.08 1.8,-1.89c0.61,-0.61 1.03,-1.04 1.97,-1.97c0.52,-0.52 1.06,-1.06 1.64,-1.57c0.58,-0.51 1.47,-1.15 2.4,-1.6c0.62,-0.3 1.28,-0.53 2.31,-0.98c0.74,-0.32 1.48,-0.69 2.23,-1.08c1.09,-0.58 1.76,-1 2.42,-1.37c0.62,-0.36 1.83,-0.92 2.73,-1.12c0.58,-0.13 1.47,-0.17 2.42,-0.68c0.75,-0.4 1.16,-0.89 2.33,-1.63c0.65,-0.42 1.38,-0.79 2.17,-1.09c1.17,-0.44 1.59,-0.48 2.4,-0.61c0.83,-0.13 1.72,-0.21 3.12,-0.6c0.52,-0.14 1.58,-0.56 2.13,-0.79c0.56,-0.23 1.12,-0.49 2.26,-0.95c1.11,-0.45 2.2,-0.8 2.73,-0.96c0.53,-0.16 1.58,-0.45 2.11,-0.61c1.62,-0.5 2.17,-0.73 2.73,-0.97c1.15,-0.48 1.72,-0.77 2.29,-1.05c0.57,-0.28 2.26,-1.18 2.8,-1.48c0.54,-0.3 1.58,-0.89 2.08,-1.18c0.5,-0.28 1.45,-0.84 2.38,-1.35c0.88,-0.49 1.73,-0.95 2.15,-1.19c0.82,-0.48 2.03,-1.31 2.42,-1.62c0.81,-0.65 1.2,-1.01 2,-1.71c0.4,-0.35 1.59,-1.34 2.4,-1.88c0.39,-0.26 1.19,-0.74 2,-1.11c1.18,-0.54 2,-0.79 2.78,-1.03c0.75,-0.23 1.46,-0.42 2.38,-0.74c0.79,-0.27 1.72,-0.68 2.73,-0.81c0.83,-0.11 1.42,-0.11 2.61,-0.08c0.91,0.02 1.56,0.08 2.19,0.34c1.08,0.44 1.78,1.08 2.17,1.4c0.83,0.69 1.24,1.1 2.68,2.26c0.5,0.41 1.03,0.8 1.57,1.2c0.54,0.4 1.65,1.2 2.19,1.6c0.54,0.4 1.58,1.19 2.06,1.6c0.94,0.79 1.38,1.2 1.8,1.62c0.84,0.83 1.25,1.26 2.04,2.15c0.81,0.91 1.2,1.39 1.6,1.87c0.8,0.97 1.2,1.47 1.6,1.97c0.8,1 1.6,2 1.99,2.5c0.39,0.5 0.78,0.99 1.49,2c0.35,0.5 1,1.49 1.55,2.5c0.27,0.49 0.75,1.48 0.98,1.97c0.47,0.95 0.94,1.88 1.47,2.75c0.26,0.43 0.82,1.25 1.31,2.08c0.7,1.19 0.89,1.6 1.2,2.4c0.31,0.79 0.53,1.61 0.98,2.8c0.3,0.81 0.66,1.6 0.83,2c0.35,0.8 0.85,2 1.12,2.8c0.27,0.81 0.5,1.64 0.77,2.48c0.28,0.88 0.6,1.8 0.77,2.27c0.34,0.95 0.7,1.89 0.86,2.36c0.48,1.36 0.73,2.23 0.98,3.06c0.12,0.41 0.36,1.23 0.82,2.42c0.31,0.8 0.67,1.56 1.03,2.29c0.48,0.98 0.91,1.8 1.24,2.53c0.43,0.94 0.71,1.74 1.01,2.56c0.2,0.54 0.69,1.77 1,2.41c0.39,0.82 0.78,1.63 1.16,2.21c0.67,1.04 1.26,1.58 1.76,2.2c0.63,0.78 0.9,1.49 1.82,2.23c0.62,0.5 1.45,0.75 1.98,0.97c1,0.4 1.94,0.81 2.45,1c1.19,0.43 1.9,0.6 2.65,0.84c0.78,0.24 1.98,0.68 2.77,1.01c0.79,0.33 1.14,0.57 2.64,1.02c0.67,0.2 1.34,0.29 2.32,0.32c1.01,0.04 1.73,0 2.49,0.02c0.8,0.02 1.64,0.05 2.97,0.21c0.93,0.11 1.4,0.21 2.35,0.35c0.94,0.14 1.86,0.27 2.74,0.34c0.84,0.06 1.64,0.08 2.4,0.08c1.4,0.01 2.06,0 3.04,0c1.01,0 1.73,0.01 2.47,-0.02c0.75,-0.03 2.22,-0.28 2.89,-0.55c0.68,-0.28 1.35,-0.68 2.05,-1.12c1.18,-0.73 1.6,-1 2.5,-1.54c0.47,-0.28 1.43,-0.83 1.93,-1.09c0.99,-0.53 2,-1 2.49,-1.24c0.98,-0.47 1.48,-0.68 2.42,-1.22c0.94,-0.54 1.81,-1.19 2.23,-1.55c0.87,-0.73 1.28,-1.13 1.71,-1.55c1.32,-1.29 1.77,-1.75 2.23,-2.22c0.47,-0.47 0.94,-0.94 1.86,-1.89c0.45,-0.47 0.9,-0.93 1.73,-1.86c0.77,-0.87 1.13,-1.31 1.77,-2.19c0.31,-0.43 0.91,-1.33 1.4,-2.31c0.51,-1.02 0.71,-1.57 0.91,-2.13c0.4,-1.12 0.56,-1.69 0.69,-2.26c0.38,-1.65 0.42,-2.2 0.5,-3.26c0.04,-0.52 0.07,-1.58 0.07,-2.11c0.01,-1.64 0,-2.2 0,-3.34c0,-0.57 0,-1.15 0,-2.29c0,-1.12 0,-2.2 0,-2.73c0,-1.04 0,-1.55 0,-2.56c0,-1.5 0,-2 -0.01,-3.01c-0.01,-0.51 -0.04,-1.55 -0.07,-2.07c-0.11,-1.64 -0.19,-2.2 -0.35,-3.35c-0.08,-0.59 -0.17,-1.18 -0.37,-2.37c-0.2,-1.2 -0.3,-1.8 -0.5,-3c-0.1,-0.6 -0.2,-1.2 -0.3,-1.8c-0.2,-1.2 -0.4,-2.4 -0.5,-3c-0.2,-1.2 -0.31,-1.8 -0.42,-2.4c-0.23,-1.2 -0.35,-1.8 -0.65,-3c-0.3,-1.2 -0.49,-1.8 -0.68,-2.4c-0.19,-0.6 -0.61,-1.8 -0.84,-2.4c-0.47,-1.21 -0.72,-1.81 -1.27,-3c-0.28,-0.6 -0.57,-1.19 -0.89,-1.77c-0.31,-0.58 -1.32,-2.27 -1.67,-2.81c-0.36,-0.54 -0.72,-1.06 -1.46,-2.06c-0.36,-0.48 -0.72,-0.94 -1.69,-2.23c-0.57,-0.76 -1.06,-1.45 -1.51,-2.08c-0.42,-0.57 -1.01,-1.35 -1.61,-2.01c-0.54,-0.6 -1.28,-1.42 -1.87,-1.84c-0.83,-0.59 -1.6,-0.81 -2.39,-1.11c-1.03,-0.4 -1.73,-0.72 -2.46,-1c-1.12,-0.43 -1.8,-0.6 -2.51,-0.82c-0.73,-0.23 -1.82,-0.63 -2.49,-0.96c-0.97,-0.48 -1.55,-0.88 -2.49,-1.18c-0.88,-0.29 -1.8,-0.33 -2.4,-0.42c-1.2,-0.17 -2.08,-0.42 -2.64,-0.62c-1.05,-0.37 -1.74,-0.68 -2.64,-1.18c-0.75,-0.42 -1.53,-0.95 -2.09,-1.25c-1.04,-0.56 -1.79,-0.68 -2.62,-0.97c-1.05,-0.37 -1.62,-0.94 -2.06,-1.3c-0.96,-0.8 -1.49,-1.2 -2.32,-1.76c-0.54,-0.36 -1.55,-0.93 -2.2,-1.34c-1.04,-0.64 -1.63,-1.14 -2.18,-1.67c-0.68,-0.65 -1.36,-1.33 -2,-2.16c-0.33,-0.43 -0.85,-1.2 -1.18,-1.78c-0.67,-1.17 -0.9,-1.79 -1.28,-2.69c-0.26,-0.6 -0.69,-1.5 -1.2,-2.4c-0.34,-0.6 -0.74,-1.18 -1.29,-2.4c-0.27,-0.6 -0.59,-1.55 -0.89,-2.57c-0.21,-0.72 -0.4,-1.46 -0.6,-2.21c-0.2,-0.74 -0.51,-1.8 -0.79,-2.8c-0.18,-0.65 -0.46,-1.99 -0.53,-2.71c-0.07,-0.75 -0.08,-1.53 -0.08,-2.32c-0.01,-1.2 0,-1.99 0,-2.78c0,-0.76 0,-1.85 0,-2.86c0,-0.62 -0.05,-1.48 0.01,-2.71c0.03,-0.68 0.29,-1.64 0.71,-2.41c0.46,-0.85 0.86,-1.39 1.49,-2.13c0.6,-0.71 1.29,-1.35 2.13,-1.92c0.62,-0.42 1.33,-0.81 2.09,-1.16c0.77,-0.37 1.98,-0.82 2.77,-1.08c0.78,-0.26 1.19,-0.32 2.64,-0.92c0.7,-0.29 1.34,-0.66 1.99,-1.01c0.66,-0.35 1.69,-0.82 2.43,-1.07c0.74,-0.25 1.5,-0.45 2.93,-0.86c0.67,-0.19 1.31,-0.42 2.31,-0.61c1.03,-0.2 1.77,-0.23 2.52,-0.29c0.75,-0.05 2.18,-0.21 2.85,-0.35c0.65,-0.14 1.63,-0.4 2.67,-0.53c0.73,-0.09 1.5,-0.11 2.28,-0.12c1.2,-0.01 2,0 2.8,0c0.8,0 1.6,0 2.8,0c0.8,0 1.58,0 2.34,0c1.44,0 2.1,0 3.05,0c0.61,0 1.81,0 2.71,0c0.6,0 1.8,0.01 2.69,-0.01c0.58,-0.02 1.65,-0.12 2.57,-0.41c0.64,-0.2 1.64,-0.49 2.51,-0.6c1.06,-0.14 1.7,-0.24 2.73,-0.5c0.7,-0.17 1.68,-0.44 2.49,-0.78c0.71,-0.3 1.56,-0.81 2.29,-1.53c0.54,-0.53 1,-1.36 1.22,-2.18c0.18,-0.66 0.57,-1.66 1,-2.5c0.3,-0.58 0.78,-1.77 0.89,-2.38c0.16,-0.93 0.17,-1.58 0.33,-2.62c0.12,-0.74 0.29,-1.5 0.43,-2.28c0.2,-1.19 0.28,-1.99 0.32,-2.8c0.04,-0.8 0.04,-1.6 0.04,-2.8c0,-0.8 0,-1.6 -0.06,-2.4c-0.08,-1.2 -0.22,-2 -0.38,-2.8c-0.16,-0.8 -0.37,-1.6 -0.66,-2.8c-0.2,-0.8 -0.4,-1.62 -0.6,-2.46c-0.31,-1.31 -0.4,-1.76 -0.6,-2.7c-0.21,-0.96 -0.32,-1.46 -0.58,-2.44c-0.27,-1 -0.6,-2 -0.77,-2.49c-0.34,-0.99 -0.53,-1.47 -0.86,-2.42c-0.47,-1.36 -0.73,-2.23 -0.87,-2.64c-0.27,-0.8 -0.52,-1.6 -1.16,-2.63c-0.43,-0.69 -0.98,-1.3 -1.51,-1.92c-0.78,-0.91 -1.27,-1.5 -1.72,-2.1c-0.68,-0.9 -1.38,-1.81 -1.91,-2.4c-0.54,-0.61 -1.12,-1.2 -1.42,-1.5c-0.89,-0.9 -1.49,-1.5 -2.08,-2.09c-0.57,-0.57 -1.12,-1.13 -2.13,-2.13c-0.46,-0.45 -1.17,-1.11 -2.02,-1.69c-0.62,-0.42 -1.32,-0.8 -2.05,-1.16c-0.73,-0.36 -1.79,-0.83 -2.46,-1.08c-0.97,-0.36 -1.63,-0.57 -2.67,-0.86c-0.73,-0.2 -1.5,-0.4 -2.28,-0.54c-1.19,-0.22 -1.99,-0.28 -2.78,-0.32c-0.77,-0.04 -1.53,-0.03 -2.93,-0.04c-0.66,-0.01 -1.64,-0.03 -2.65,-0.17c-0.72,-0.1 -1.47,-0.26 -2.24,-0.41c-0.79,-0.15 -1.99,-0.32 -2.79,-0.37c-0.8,-0.05 -1.6,-0.05 -2.8,-0.06c-0.8,0 -1.6,0 -2.4,0c-0.8,0 -2,-0.01 -2.8,0c-0.8,0.01 -1.6,0.02 -2.8,0.16c-0.81,0.1 -1.62,0.27 -2.47,0.44c-0.9,0.19 -1.86,0.39 -2.9,0.59c-0.54,0.1 -1.65,0.32 -2.22,0.43c-0.57,0.12 -2.25,0.52 -2.79,0.69c-1.08,0.32 -1.61,0.52 -2.14,0.72c-1.09,0.41 -1.65,0.64 -2.81,1.13c-0.61,0.25 -1.88,0.79 -2.53,1.06c-0.66,0.28 -1.32,0.55 -1.99,0.82c-0.66,0.27 -1.98,0.79 -3.26,1.27c-0.63,0.24 -1.25,0.46 -1.86,0.7c-0.61,0.24 -1.83,0.73 -3.02,1.31c-0.61,0.3 -1.2,0.63 -1.79,0.97c-1.17,0.67 -1.74,1.02 -2.29,1.34c-0.54,0.31 -2.07,1.11 -2.54,1.31c-0.89,0.38 -1.76,0.67 -2.57,1.02c-0.81,0.35 -1.61,0.79 -2.39,1.28c-0.78,0.49 -1.13,0.78 -2.24,1.42c-0.99,0.56 -1.65,0.8 -2.26,1.08c-1.21,0.55 -1.81,0.9 -2.4,1.27c-0.6,0.38 -1.8,1.18 -2.4,1.58c-0.6,0.4 -1.2,0.8 -2.4,1.6c-0.6,0.4 -1.21,0.8 -1.86,1.14c-0.99,0.52 -1.73,0.78 -2.47,1.03c-0.75,0.26 -1.52,0.45 -2.89,1.11c-0.66,0.32 -1.28,0.72 -1.88,1.12c-0.91,0.59 -1.8,1.2 -2.4,1.56c-0.59,0.36 -1.8,0.96 -2.39,1.2c-0.85,0.34 -1.9,0.71 -2.56,1.04c-0.77,0.37 -1.4,1.06 -2.25,1.43c-0.75,0.33 -1.7,0.23 -2.5,0.67c-0.81,0.44 -1.83,0.52 -2.52,0.49c-0.84,-0.04 -1.48,-0.11 -2.5,-0.43c-0.74,-0.24 -1.49,-0.58 -2.23,-0.97c-1.1,-0.57 -1.77,-0.99 -2.43,-1.39c-0.65,-0.4 -1.3,-0.81 -2.35,-1.4c-0.73,-0.41 -1.48,-0.8 -2.23,-1.2c-1.09,-0.59 -1.77,-0.99 -2.42,-1.4c-0.63,-0.39 -1.84,-1.2 -2.43,-1.6c-0.59,-0.4 -1.19,-0.77 -2.23,-1.6c-0.49,-0.39 -1.15,-1 -1.77,-1.6c-0.81,-0.79 -1.4,-1.4 -1.8,-1.8c-0.8,-0.8 -1.4,-1.4 -2,-2c-0.8,-0.8 -1.22,-1.19 -1.8,-1.84c-0.82,-0.91 -1.21,-1.44 -1.8,-2.28c-0.41,-0.58 -1,-1.48 -1.4,-2.08c-0.39,-0.6 -0.98,-1.48 -1.43,-2.4c-0.44,-0.88 -0.65,-1.5 -0.97,-2.4c-0.31,-0.9 -0.6,-1.79 -0.77,-2.36c-0.3,-1.06 -0.41,-2.01 -0.43,-2.69c-0.02,-0.97 0,-1.78 0,-2.65c0,-1.2 0,-1.79 0,-2.66c0,-1.07 0,-2 0,-2.83c0,-1.01 -0.01,-1.64 0,-2.82c0.01,-0.79 -0.1,-1.62 0.29,-2.61c0.26,-0.67 1.04,-1.51 1.37,-1.97c0.53,-0.74 1.16,-1.68 1.72,-2.33c0.49,-0.56 1.13,-1.12 1.8,-1.87c0.68,-0.77 1.02,-1.42 1.58,-2.13c0.52,-0.67 1.26,-1.14 2.25,-1.66c0.59,-0.31 1.39,-0.71 2.12,-1.48c0.44,-0.47 1.2,-1.23 1.89,-1.41c0.76,-0.2 1.85,-0.39 2.53,-0.81c0.84,-0.53 1.59,-1.1 2.27,-1.4c0.98,-0.43 1.7,-0.92 2.24,-1.19c1.01,-0.5 1.95,-0.67 2.63,-0.79c1,-0.18 1.82,-0.42 2.63,-0.72c1.01,-0.37 1.69,-0.72 2.45,-0.91c0.86,-0.22 1.9,-0.26 2.65,-0.31c0.78,-0.06 1.98,-0.18 2.78,-0.33c0.8,-0.15 1.6,-0.35 2.8,-0.64c0.8,-0.2 1.59,-0.4 2.36,-0.56c0.75,-0.16 1.81,-0.33 2.48,-0.38c0.95,-0.07 2.16,-0.06 2.76,-0.06c0.92,0 1.56,0 2.92,0c0.74,0 1.5,0 2.28,-0.06c1.2,-0.08 2,-0.22 2.8,-0.37c0.8,-0.15 1.6,-0.32 2.8,-0.45c0.8,-0.09 1.6,-0.11 2.4,-0.12c1.2,-0.01 2.01,0 2.84,0c0.44,0 1.39,0 1.9,0c1.74,0 2.4,0 3.09,0c0.72,0 1.45,0 2.21,0c0.78,0 1.56,0 3.16,0c0.8,0 1.6,0 2.39,0c0.79,0 1.57,0 2.34,0c1.5,0 2.94,0 3.63,0c0.67,0 1.33,0 2.6,0.02c0.62,0.01 1.23,0.03 1.84,0.06c1.8,0.11 2.4,0.2 2.99,0.27c1.17,0.14 1.74,0.23 2.84,0.36c1.04,0.13 2,0.2 2.88,0.26c0.8,0.05 1.54,0.03 2.73,0.31c0.78,0.18 1.53,0.53 2.41,0.81c0.66,0.21 1.74,0.5 2.47,0.7c1.06,0.3 1.73,0.5 2.4,0.7c1.05,0.31 2.22,0.6 2.65,0.7c0.91,0.21 1.88,0.4 2.39,0.5c1.6,0.31 2.16,0.4 2.72,0.5c1.16,0.2 1.75,0.3 2.36,0.4c1.24,0.2 2.52,0.4 3.17,0.5c0.66,0.1 1.33,0.2 2.68,0.38c0.67,0.09 1.35,0.17 2.02,0.24c1.32,0.13 2.6,0.2 3.22,0.23c0.61,0.02 1.82,0.05 2.4,0.05c0.58,0 2.24,0 2.78,0.01c1.06,0.01 1.58,0.01 2.64,0.06c0.53,0.02 2.17,0.16 2.73,0.23c1.13,0.13 1.7,0.22 2.81,0.36c0.54,0.07 2.07,0.24 2.54,0.27c0.87,0.05 1.67,0.18 2.87,-0.08c0.84,-0.18 1.45,-0.67 2.51,-1.13c0.73,-0.32 1.7,-0.64 2.33,-1.11c0.58,-0.43 1.32,-1.25 1.87,-1.8c0.79,-0.79 1.18,-1.2 1.81,-1.79c0.65,-0.61 1.4,-1.2 2.2,-1.8c0.55,-0.4 1.1,-0.79 2.09,-1.6c0.67,-0.55 1.24,-1.15 2.29,-1.49c0.78,-0.25 1.6,-0.34 2.4,-0.61c1,-0.34 1.82,-0.48 2.51,-0.5c1.13,-0.03 1.8,0 2.53,0c0.77,0 1.96,0 2.76,0c0.84,0 1.74,0 2.74,0c1.13,0 1.74,0 2.4,0c1.4,0.01 2.14,0.03 2.9,0.07c0.78,0.04 1.57,0.07 3.16,0.26c0.8,0.1 1.6,0.23 2.39,0.39c0.78,0.15 1.55,0.33 2.31,0.54c0.74,0.2 1.46,0.4 2.81,0.91c0.64,0.24 1.26,0.5 2.39,1.08c0.55,0.28 1.09,0.58 2.1,1.24c1.02,0.66 1.51,1.03 2.5,1.77c0.5,0.37 0.98,0.75 1.47,1.12c0.95,0.74 1.87,1.46 2.75,2.14c0.42,0.33 1.25,0.96 1.64,1.27c0.76,0.61 1.83,1.51 2.16,1.81c0.65,0.59 1.28,1.2 1.88,1.8c0.9,0.9 1.5,1.49 2.08,2.1c0.57,0.6 1.36,1.49 1.84,2.1c0.48,0.61 0.94,1.27 1.45,1.97c0.56,0.76 1.2,1.6 1.54,2.04c0.35,0.46 1.08,1.41 1.44,1.89c0.37,0.49 1.43,1.99 1.76,2.49c0.33,0.5 0.97,1.52 1.27,2.03c0.31,0.52 1.21,2.13 1.51,2.69c0.3,0.56 0.6,1.13 1.2,2.3c0.3,0.59 0.6,1.18 0.9,1.78c0.6,1.2 1.2,2.4 1.5,3c0.3,0.6 0.6,1.2 0.9,1.8c0.6,1.2 1.2,2.4 1.5,3c0.3,0.6 0.6,1.2 1.2,2.42c0.3,0.61 0.6,1.24 0.9,1.86c0.6,1.28 0.9,1.94 1.2,2.6c0.3,0.67 0.6,1.35 1.2,2.73c0.3,0.69 0.6,1.39 1.2,2.79c0.3,0.7 0.6,1.4 0.9,2.1c0.3,0.71 0.59,1.41 0.87,2.13c0.28,0.72 0.57,1.44 1.07,2.93c0.25,0.75 0.49,1.52 0.72,2.29c0.24,0.78 0.47,1.58 0.71,2.39c0.25,0.82 0.49,1.65 1.07,3.32c0.3,0.86 0.63,1.72 0.96,2.59c0.33,0.88 0.67,1.76 0.98,2.65c0.31,0.89 0.64,1.78 1.06,3.59c0.21,0.89 0.34,1.8 0.45,2.7c0.11,0.9 0.18,1.82 0.25,2.73c0.07,0.92 0.11,1.85 0.3,3.73c0.1,0.96 0.23,1.92 0.37,2.89c0.14,0.97 0.3,1.95 0.44,2.92c0.15,0.97 0.31,1.94 0.52,3.86c0.1,0.94 0.17,1.88 0.22,2.8c0.05,0.91 0.08,1.8 0.09,2.68c0.02,0.86 0.02,1.71 0.02,3.35c0,0.79 0,1.56 0,2.32c0,0.74 0,1.47 0,2.19c0,0.71 0,1.42 0,2.82c0,0.7 0,1.4 0,2.1c0,0.7 -0.01,1.4 -0.03,2.1c-0.02,0.7 -0.04,1.4 -0.13,2.8c-0.05,0.7 -0.11,1.4 -0.19,2.09c-0.07,0.68 -0.16,1.35 -0.25,2.01c-0.09,0.64 -0.18,1.25 -0.39,2.41c-0.1,0.54 -0.2,1.05 -0.3,1.54c-0.09,0.48 -0.19,0.94 -0.27,1.4c-0.08,0.46 -0.27,1.89 -0.32,2.4c-0.09,1.07 -0.11,1.63 -0.16,2.2c-0.11,1.17 -0.16,1.77 -0.46,2.96c-0.3,1.21 -0.56,1.8 -0.8,2.4c-0.24,0.6 -0.76,1.8 -1.02,2.4c-0.52,1.2 -0.77,1.8 -1.22,3.01c-0.23,0.61 -0.44,1.23 -0.65,1.86c-0.21,0.64 -0.42,1.29 -1.01,3.37c-0.21,0.73 -0.4,1.47 -0.61,2.22c-0.21,0.76 -0.42,1.52 -0.65,2.29c-0.22,0.77 -0.7,2.28 -0.96,3.03c-0.26,0.74 -0.53,1.46 -0.8,2.16c-0.27,0.7 -0.55,1.38 -0.82,2.04c-0.27,0.65 -1.03,2.48 -1.27,3.05c-0.23,0.55 -0.66,1.61 -0.87,2.11c-0.41,0.97 -0.81,1.89 -1.21,2.77c-0.39,0.85 -0.59,1.26 -0.94,2.08c-0.51,1.2 -0.77,2 -1.03,2.78c-0.25,0.75 -0.44,1.49 -1.11,2.65c-0.31,0.54 -0.92,1.24 -1.35,2.1c-0.48,0.95 -0.66,1.71 -0.92,2.48c-0.4,1.19 -0.56,1.59 -0.9,2.39c-0.34,0.8 -0.72,1.59 -1.18,2.8c-0.3,0.79 -0.54,1.6 -0.67,2c-0.25,0.8 -0.66,2 -0.98,2.8c-0.33,0.8 -0.7,1.6 -1.03,2.4c-0.33,0.8 -0.61,1.6 -0.85,2.39c-0.23,0.77 -0.42,1.53 -0.84,2.93c-0.2,0.67 -0.43,1.35 -0.68,2.05c-0.43,1.18 -0.77,2.05 -0.96,2.51c-0.4,0.98 -0.6,1.49 -1.32,3.08c-0.25,0.56 -0.52,1.12 -0.79,1.69c-0.55,1.16 -0.82,1.75 -1.09,2.35c-0.27,0.6 -1.03,2.39 -1.27,3c-0.23,0.6 -0.46,1.2 -0.87,2.4c-0.21,0.6 -0.41,1.2 -0.81,2.4c-0.4,1.2 -0.6,1.8 -0.82,2.39c-0.22,0.59 -0.68,1.76 -0.95,2.33c-0.54,1.13 -1.19,2.2 -1.53,2.73c-0.34,0.53 -0.7,1.05 -1.39,2.11c-0.34,0.53 -0.98,1.61 -1.26,2.17c-0.56,1.12 -0.79,1.7 -1.04,2.28c-0.5,1.15 -0.74,1.73 -1.33,2.83c-0.3,0.55 -0.97,1.62 -1.33,2.14c-0.36,0.53 -0.73,1.04 -1.46,2.11c-0.73,1.08 -1.07,1.63 -1.4,2.2c-0.66,1.13 -0.97,1.72 -1.27,2.29c-0.31,0.57 -0.6,1.15 -1.51,2.8c-0.3,0.54 -0.6,1.07 -1.22,2.12c-0.31,0.53 -0.63,1.06 -1.65,2.67c-0.35,0.56 -0.72,1.12 -1.09,1.69c-0.38,0.58 -0.76,1.16 -1.55,2.35c-0.4,0.6 -1.2,1.8 -1.6,2.4c-0.4,0.6 -0.8,1.2 -1.2,1.79c-0.4,0.59 -0.79,1.18 -1.6,2.33c-0.79,1.12 -1.2,1.67 -1.6,2.2c-0.4,0.53 -1.2,1.57 -1.6,2.07c-0.4,0.51 -0.8,1.01 -2,2.51c-0.4,0.5 -0.8,1 -1.19,1.49c-0.78,0.97 -1.15,1.45 -1.53,1.93c-1.07,1.36 -1.4,1.8 -2.06,2.65c-0.32,0.42 -0.97,1.24 -1.31,1.63c-1.02,1.21 -1.4,1.6 -2.15,2.41c-0.38,0.41 -1.17,1.24 -1.57,1.67c-0.8,0.88 -1.6,1.8 -2,2.27c-0.41,0.47 -0.81,0.95 -1.65,1.89c-0.42,0.47 -1.3,1.39 -1.76,1.83c-0.92,0.88 -1.4,1.29 -1.88,1.7c-0.47,0.41 -1.42,1.21 -2.33,2.02c-0.45,0.4 -1.32,1.2 -1.75,1.59c-0.87,0.78 -1.31,1.17 -1.78,1.53c-1.44,1.1 -2,1.4 -2.54,1.72c-0.54,0.32 -1.64,0.92 -2.19,1.2c-0.54,0.28 -2.06,1.04 -2.54,1.28c-0.91,0.46 -1.79,0.91 -2.22,1.14c-1.32,0.71 -1.77,0.97 -2.71,1.49c-0.48,0.26 -1.45,0.78 -1.95,0.99c-1.47,0.62 -1.99,0.73 -3,0.9c-0.5,0.09 -1.5,0.18 -2.5,0.33c-1,0.15 -2,0.39 -2.5,0.55c-0.99,0.31 -1.47,0.49 -2.42,0.89c-1.37,0.58 -1.8,0.8 -2.64,1.18c-0.8,0.36 -1.54,0.71 -2.63,0.98c-0.66,0.17 -1.68,0.23 -2.39,0.24c-1.17,0.02 -2.04,0 -2.5,0c-0.95,0 -1.93,0 -2.93,0c-1,0 -2,0 -2.5,0c-1,0 -1.5,0 -3,0c-1,0 -1.5,0 -2.5,0c-0.5,0 -2,0 -3,0c-0.5,0 -1.5,-0.01 -2,-0.03c-1,-0.04 -2.5,-0.18 -3,-0.25c-1.01,-0.14 -1.52,-0.23 -2.56,-0.42c-0.53,-0.1 -2.16,-0.4 -2.73,-0.49c-0.57,-0.1 -1.72,-0.28 -2.29,-0.37c-1.14,-0.16 -2.26,-0.28 -2.8,-0.31c-1.06,-0.08 -2.08,-0.1 -2.58,-0.11c-0.96,-0.01 -2.32,-0.01 -3.18,-0.01c-0.42,0 -1.6,0 -2.7,0c-0.68,0 -1.63,-0.01 -2.2,0.06c-1.29,0.15 -1.95,0.44 -2.96,0.94c-0.6,0.3 -1.43,0.75 -1.98,1.54c-0.46,0.66 -0.66,1.48 -1.12,2.31c-0.44,0.79 -1.05,1.44 -1.38,2.16c-0.43,0.95 -0.5,1.79 -0.52,2.66c-0.02,1 0,1.79 0,2.55c0,1.12 0,2.1 0,2.78c0,0.78 0,1.82 0,2.75c0,0.83 0,1.84 0,2.47c0,1.19 0,1.99 0,2.81c0,1.03 0.03,1.75 -0.11,2.46c-0.24,1.15 -0.59,1.8 -0.89,2.49c-0.29,0.69 -0.81,1.95 -0.93,2.75c-0.11,0.75 -0.07,1.89 -0.08,2.56c-0.01,0.69 -0.01,1.74 -0.22,2.65c-0.23,1.02 -0.59,1.63 -1.07,2.64c-0.36,0.74 -0.68,1.65 -0.7,2.5c-0.03,0.9 0.12,1.68 0.57,2.5c0.43,0.77 0.98,1.35 1.75,1.62c0.72,0.25 1.67,0.8 2.5,1.18c0.69,0.32 1.51,0.62 2.49,0.9c0.72,0.2 1.49,0.38 2.69,0.54c0.8,0.1 1.6,0.14 2.4,0.19c0.8,0.05 2,0.18 2.81,0.33c0.83,0.15 1.26,0.26 2.16,0.44c1.47,0.31 2,0.4 3.08,0.59c0.55,0.09 1.1,0.19 2.18,0.33c1.52,0.19 2,0.2 2.92,0.26c0.9,0.05 1.82,0.1 2.78,0.19c1.04,0.1 1.58,0.19 2.14,0.27c1.15,0.17 1.74,0.27 3.53,0.56c0.6,0.1 1.2,0.2 1.8,0.3c1.18,0.19 1.77,0.28 2.92,0.42c1.12,0.13 1.66,0.17 2.73,0.24c1.04,0.07 1.55,0.08 2.56,0.22c1.01,0.14 2,0.39 2.51,0.54c1.02,0.29 1.52,0.47 2.58,0.73c1.08,0.26 2.2,0.4 2.76,0.46c0.56,0.05 1.66,0.11 2.7,0.19c0.96,0.07 1.8,0.19 2.54,0.34c0.95,0.2 1.99,0.49 2.88,0.55c0.87,0.06 1.74,0.02 2.68,0.02c0.85,0 1.57,0.01 2.56,0c0.82,-0.01 1.97,-0.14 2.76,-0.36c0.59,-0.16 1.53,-0.51 2.56,-0.96c0.74,-0.33 1.52,-0.7 1.92,-0.89c0.84,-0.39 2.17,-0.99 2.64,-1.19c0.95,-0.4 1.43,-0.6 2.42,-1c0.5,-0.2 2,-0.8 2.5,-1c1.01,-0.4 1.52,-0.6 2.56,-1c0.53,-0.2 1.61,-0.6 2.73,-1c0.57,-0.2 1.16,-0.41 2.36,-0.83c0.62,-0.22 1.24,-0.44 2.52,-0.93c0.66,-0.25 1.32,-0.52 1.99,-0.79c1.35,-0.54 2.02,-0.82 2.69,-1.09c0.67,-0.27 1.99,-0.79 2.63,-1.03c0.64,-0.24 1.9,-0.7 2.52,-0.92c0.63,-0.23 1.25,-0.45 1.88,-0.68c1.28,-0.48 2.6,-1 3.27,-1.27c0.67,-0.27 1.35,-0.55 2.02,-0.82c0.67,-0.27 1.34,-0.55 2.66,-1.06c1.28,-0.49 1.91,-0.71 2.53,-0.93c0.61,-0.22 1.22,-0.43 2.43,-0.83c1.2,-0.4 1.8,-0.6 2.98,-1c0.58,-0.19 1.14,-0.38 2.19,-0.75c0.49,-0.17 1.74,-0.64 2.68,-1.01c0.73,-0.29 1.74,-0.59 2.51,-0.64c0.95,-0.05 1.87,-0.13 2.54,-0.72c0.64,-0.56 1.22,-1.39 1.9,-1.86c0.73,-0.51 1.77,-0.19 2.51,-0.55c0.78,-0.38 1.21,-1.16 1.75,-1.57c0.99,-0.76 1.82,-1.28 2.27,-1.58c0.48,-0.32 1.5,-1 2.05,-1.39c1.17,-0.83 1.77,-1.3 2.39,-1.8c0.64,-0.51 1.29,-1.04 1.95,-1.59c0.67,-0.55 1.33,-1.11 2,-1.68c1.32,-1.11 1.96,-1.66 2.59,-2.2c0.62,-0.53 1.23,-1.05 1.83,-1.56c0.58,-0.51 1.15,-1.01 1.69,-1.52c1.05,-0.99 1.53,-1.5 2,-2c0.46,-0.5 0.91,-0.99 1.75,-2c0.42,-0.5 0.82,-1 1.62,-2c0.8,-1 1.2,-1.49 1.6,-1.97c0.4,-0.47 1.19,-1.37 1.6,-1.78c1.16,-1.13 1.59,-1.41 2.38,-1.97c0.75,-0.53 1.49,-1.02 2.09,-1.62c0.6,-0.6 1.08,-1.33 1.51,-2.09c0.44,-0.77 1.02,-1.98 1.22,-2.38c0.4,-0.79 0.79,-1.57 1.2,-2.32c0.59,-1.07 1,-1.73 1.4,-2.39c0.4,-0.65 1.01,-1.66 1.4,-2.39c0.41,-0.75 0.8,-1.52 1.2,-2.32c0.4,-0.8 0.8,-1.6 1.2,-2.4c0.4,-0.8 0.8,-1.6 1.2,-2.4c0.4,-0.8 0.8,-1.6 1.2,-2.4c0.2,-0.4 0.8,-1.6 1.2,-2.4c0.4,-0.83 0.61,-1.25 1,-2.17c0.21,-0.48 0.8,-2.09 1,-2.68c0.2,-0.61 0.41,-1.25 0.8,-2.58c0.2,-0.68 0.4,-1.37 0.8,-2.77c0.2,-0.7 0.4,-1.4 0.6,-2.1c0.2,-0.7 0.4,-1.4 0.8,-2.8c0.2,-0.7 0.6,-2.1 0.8,-2.8c0.2,-0.7 0.4,-1.4 0.6,-2.09c0.2,-0.69 0.4,-1.38 0.8,-2.73c0.4,-1.32 0.6,-1.96 0.8,-2.6c0.2,-0.62 0.58,-1.83 0.77,-2.41c0.18,-0.56 0.67,-2.15 0.81,-2.64c0.27,-0.93 0.5,-1.8 0.72,-2.63c0.31,-1.21 0.51,-2.01 0.69,-2.79c0.18,-0.75 0.36,-1.45 0.53,-2.65c0.1,-0.73 0.21,-1.78 0.52,-2.57c0.24,-0.61 0.77,-1.6 1.06,-2.22c0.31,-0.66 0.72,-1.66 0.98,-2.5c0.26,-0.87 0.41,-1.78 0.5,-2.69c0.06,-0.62 0.18,-1.96 0.31,-2.67c0.13,-0.73 0.33,-1.45 0.55,-2.78c0.14,-0.81 0.05,-1.53 0.45,-2.45c0.32,-0.74 0.67,-1.8 -0.23,-1.89c-0.82,-0.07 -1.54,0.57 -2.09,1.04c-0.65,0.56 -1.38,1.16 -2.18,1.76c-0.55,0.4 -1.62,1.19 -2.09,1.6c-0.68,0.59 -1.28,1.2 -1.89,1.8c-0.6,0.6 -1.2,1.2 -2,2c-0.6,0.6 -1.2,1.2 -1.8,1.8c-0.59,0.59 -1.25,1.46 -2.11,1.83c-0.83,0.35 -1.16,0.94 -1.94,1.11c-0.84,0.18 -0.95,-1.43 -1.25,-2.31c-0.23,-0.67 -0.41,-1.4 -0.86,-2.47c-0.29,-0.69 -0.83,-1.61 -1.12,-2.2c-0.5,-1.02 -0.67,-1.72 -0.71,-2.56c-0.05,-1 -0.02,-1.87 -0.22,-2.82c-0.17,-0.81 -0.48,-1.62 -0.66,-2.66c-0.12,-0.68 -0.12,-1.52 -0.12,-2.52c0,-0.92 0,-1.9 0,-2.73c0,-0.89 0,-1.88 0,-2.68c0,-1 0,-1.8 0,-2.6c0,-1 0.02,-1.86 0.22,-2.82c0.17,-0.81 0.46,-1.62 0.66,-2.66c0.13,-0.68 0.22,-1.56 0.69,-2.32c0.4,-0.64 1,-1.16 1.68,-2.21c0.41,-0.64 0.91,-1.73 1.24,-2.36c0.35,-0.69 0.73,-1.4 1.2,-2.06c0.69,-0.96 1.26,-1.46 1.79,-1.95c0.75,-0.7 1.4,-1.43 1.87,-2.26c0.32,-0.57 0.55,-1.21 1.42,-2.36c0.47,-0.62 1.04,-1.18 1.63,-1.72c0.88,-0.79 1.5,-1.23 2.1,-1.69c0.6,-0.45 1.51,-1.16 2.1,-1.69c0.61,-0.54 1.2,-1.12 1.8,-1.72c0.9,-0.9 1.5,-1.5 2.1,-2.1c0.3,-0.3 0.9,-0.9 1.8,-1.8c0.6,-0.6 1.2,-1.2 1.8,-1.8c0.9,-0.9 1.5,-1.5 2.09,-2.09c0.57,-0.57 1.13,-1.13 1.89,-1.89c0.46,-0.46 1.11,-1.11 1.92,-1.92c0.6,-0.6 1.2,-1.17 1.83,-2c0.44,-0.58 0.75,-1.23 1.49,-2.2c0.48,-0.62 1.07,-1.17 1.66,-2c0.41,-0.58 0.81,-1.41 1.22,-2.2c0.42,-0.81 0.96,-1.6 1.45,-2.2c0.49,-0.6 1.13,-1.59 1.3,-2.21c0.24,-0.87 0.61,-1.88 0.92,-2.43c0.51,-0.88 1.14,-1.76 1.53,-2.37c0.39,-0.6 0.96,-1.53 1.27,-2.57c0.21,-0.71 0.28,-1.47 0.31,-2.24c0.04,-0.79 0.02,-1.99 0.02,-2.79c0,-0.8 0,-1.6 0,-2.8c0,-0.8 0,-1.6 0.04,-2.4c0.04,-0.8 0.18,-2 0.32,-2.8c0.14,-0.8 0.33,-1.6 0.48,-2.8c0.1,-0.8 0.14,-1.6 0.16,-2.4c0.02,-0.8 0.01,-2 0.01,-2.8c0,-0.78 0,-1.55 0,-2.64c0,-1.01 0,-1.65 0,-2.57c0,-1.2 0.03,-1.79 -0.06,-2.64c-0.11,-1.04 -0.37,-1.75 -0.7,-2.47c-0.53,-1.15 -0.89,-1.8 -1.24,-2.49c-0.35,-0.69 -0.85,-1.66 -1.24,-2.49c-0.33,-0.69 -0.65,-1.71 -0.76,-2.56c-0.09,-0.73 -0.28,-1.93 -0.44,-2.61c-0.16,-0.7 -0.32,-1.4 -0.76,-2.58c-0.27,-0.74 -0.81,-1.76 -1.1,-2.37c-0.37,-0.79 -0.65,-1.8 -0.69,-2.6c-0.05,-1 0,-1.82 -0.1,-2.49c-0.15,-1.01 -0.44,-1.86 -0.62,-2.48c-0.4,-1.36 -0.6,-2.1 -0.77,-2.88c-0.18,-0.82 -0.27,-1.24 -0.4,-2.58c-0.09,-0.93 -0.09,-1.88 -0.08,-2.35c0.02,-0.94 0.16,-2.31 0.32,-3.17c0.08,-0.42 0.26,-1.25 0.52,-2.06c0.4,-1.21 0.75,-2 1.13,-2.76c0.37,-0.74 0.96,-1.72 1.38,-2.27c0.59,-0.77 1.05,-1.22 1.77,-1.94c0.78,-0.79 1.32,-1.32 1.88,-1.82c0.77,-0.69 1.49,-1.21 2.18,-1.62c0.93,-0.57 1.73,-1.05 2.3,-1.36c0.58,-0.32 1.77,-0.83 2.69,-0.95c0.62,-0.08 1.27,-0.07 2.67,-0.07c0.75,0 1.53,0 2.32,0c1.2,0 1.99,-0.01 2.76,0.02c0.73,0.03 2.01,0.18 2.77,0.4c0.67,0.2 1.71,0.38 2.47,0.67c1.07,0.41 1.42,0.96 2.04,1.77c0.46,0.61 1.18,1.65 1.45,2.02c0.55,0.75 1.12,1.53 1.42,1.92c0.89,1.2 1.2,1.6 1.8,2.4c0.6,0.8 0.9,1.2 1.5,2c0.6,0.8 1.21,1.6 1.79,2.42c0.29,0.42 0.87,1.29 1.13,1.75c0.81,1.45 1.01,2 1.23,2.54c0.46,1.11 0.67,1.68 0.91,2.24c0.7,1.69 0.96,2.23 1.23,2.76c0.53,1.05 0.82,1.56 1.09,2.07c0.54,1.01 1.07,2.01 1.54,3.01c0.23,0.5 0.68,1.48 0.91,1.97c0.45,0.95 0.93,1.88 1.46,2.75c0.26,0.43 0.83,1.27 1.42,2.08c0.29,0.41 1.2,1.6 1.49,2c0.59,0.8 1.17,1.6 1.44,2c0.81,1.19 1.27,2 1.5,2.39c0.44,0.77 0.81,1.52 1.46,2.48c0.57,0.84 0.99,1.3 1.6,1.93c0.79,0.82 1.42,1.39 1.91,2.09c0.51,0.71 0.87,1.54 1.18,2.42c0.32,0.89 0.61,1.8 0.8,2.42c0.31,0.96 0.61,2 0.8,2.74c0.19,0.76 0.38,1.54 0.54,2.74c0.1,0.8 0.14,1.61 0.16,2.44c0.02,0.85 0.01,1.73 0.01,2.65c0,0.95 0,1.44 0,2.42c0,1.5 0,2 0,3c0,0.51 0,1.53 0,2.05c0,1.61 0,2.16 0,3.3c0,0.58 -0.03,1.75 -0.05,2.35c-0.02,0.6 -0.16,2.4 -0.23,3c-0.07,0.6 -0.14,1.2 -0.29,2.4c-0.07,0.6 -0.16,1.2 -0.3,3c-0.05,0.6 -0.07,1.2 -0.14,2.4c-0.04,0.6 -0.04,1.21 -0.31,3c-0.09,0.6 -0.23,1.2 -0.52,2.4c-0.15,0.6 -0.32,1.19 -0.58,2.4c-0.26,1.2 -0.34,1.8 -0.46,3c-0.06,0.59 -0.09,1.18 -0.21,2.35c-0.06,0.57 -0.2,1.7 -0.46,2.77c-0.13,0.53 -0.45,1.55 -0.62,2.04c-0.33,0.96 -0.8,2.32 -0.93,2.76c-0.26,0.86 -0.48,1.71 -0.68,2.57c-0.31,1.33 -0.4,1.8 -0.61,2.74c-0.22,0.95 -0.3,1.44 -0.76,2.81c-0.29,0.89 -0.47,1.31 -0.85,2.1c-0.36,0.75 -0.96,1.74 -1.58,2.56c-0.39,0.51 -1.03,1.26 -1.6,2.15c-0.42,0.65 -0.79,1.36 -1.2,2.05c-0.59,0.98 -0.96,1.57 -1.6,2.24c-0.57,0.61 -1.4,1.18 -2.16,1.65c-0.82,0.51 -1.47,1.06 -2.38,1.51c-0.69,0.34 -1.48,0.55 -2.31,1c-0.82,0.45 -1.68,1.03 -2.43,1.29c-0.57,0.2 -1.88,0.46 -2.6,0.53c-0.73,0.07 -1.47,0.02 -2.78,0.25c-0.83,0.14 -1.54,0.43 -2.33,1c-0.63,0.45 -1.12,1.12 -2.2,1.59c-0.74,0.33 -1.73,0.28 -2.39,0.89c-0.62,0.57 -0.89,1.41 -1.58,2.35c-0.46,0.63 -1.03,1.22 -1.35,1.69c-0.65,0.97 -0.98,1.85 -1.18,2.48c-0.33,1 -0.5,1.72 -0.72,2.47c-0.22,0.78 -0.45,1.57 -0.91,2.76c-0.31,0.81 -0.69,1.62 -1.03,2.46c-0.17,0.43 -0.64,1.76 -0.9,2.7c-0.13,0.48 -0.35,1.48 -0.45,2c-0.32,1.6 -0.41,2.16 -0.5,2.73c-0.2,1.16 -0.29,1.75 -0.37,2.36c-0.16,1.24 -0.27,2.52 -0.31,3.17c-0.04,0.66 -0.1,2.02 -0.12,2.72c-0.03,0.7 -0.05,1.42 -0.08,2.14c-0.07,1.48 -0.13,2.24 -0.2,3c-0.07,0.77 -0.14,1.55 -0.22,2.34c-0.07,0.79 -0.15,1.58 -0.22,2.38c-0.13,1.6 -0.17,2.4 -0.2,3.2c-0.03,0.79 -0.05,1.58 -0.04,2.36c0,0.77 -0.01,1.53 0.13,3.71c0.04,0.69 0.11,1.36 0.19,2c0.07,0.62 0.22,1.77 0.29,2.29c0.19,1.37 0.27,2.41 0.38,3.2c0.15,1.05 0.45,1.63 0.69,2.44c0.29,0.98 0.3,1.95 0.71,2.76c0.39,0.77 0.9,1.64 1.43,2.04c0.81,0.61 1.11,1.49 1.72,1.89c0.65,0.42 1.59,0.88 2.39,1.37c0.6,0.36 1.24,0.77 2.37,1.34c0.83,0.42 1.28,0.6 2.19,1.02c0.47,0.21 1.41,0.64 2.31,1.15c0.89,0.5 1.71,1.05 2.1,1.31c0.75,0.51 1.72,1.21 2.56,1.71c0.74,0.44 1.27,0.69 2.47,1.3c0.69,0.35 1.42,0.72 2.15,1.12c1.07,0.59 1.73,0.99 2.34,1.42c0.59,0.42 1.4,1.13 1.86,1.66c0.7,0.81 1.08,1.42 1.69,2.31c0.4,0.6 1,1.5 1.4,2.1c0.6,0.9 1,1.5 1.58,2.38c0.37,0.56 1.04,1.58 1.37,2.31c0.33,0.71 0.51,1.55 0.59,2.52c0.06,0.69 0.05,1.39 0.06,2.65c0,0.79 0,1.55 0,2.69c0,0.67 0,1.78 0,2.56c0,1.2 0.01,1.99 -0.04,2.78c-0.05,0.77 -0.25,1.87 -0.53,2.54c-0.28,0.67 -0.69,1.3 -1.2,1.88c-0.82,0.94 -1.53,1.5 -2.23,2.12c-0.35,0.31 -1.08,0.92 -1.96,2c-0.57,0.7 -0.78,1.1 -1.29,1.82c-0.5,0.7 -1.38,1.64 -2.05,2.15c-0.68,0.51 -1.43,0.91 -2.36,1.68c-0.59,0.49 -1.08,1.06 -1.55,1.64c-0.47,0.59 -1.2,1.5 -1.74,2.08c-0.54,0.59 -1.09,1.15 -1.88,1.94c-0.71,0.72 -1.17,1.17 -1.85,1.85c-0.74,0.74 -1.27,1.27 -1.84,1.84c-0.58,0.58 -1.48,1.48 -2.08,2.08c-0.6,0.61 -1.2,1.23 -1.5,1.56c-0.91,1 -1.5,1.73 -2.1,2.47c-0.3,0.37 -0.89,1.13 -1.8,2.21c-0.3,0.35 -0.9,1.02 -1.52,1.67c-0.63,0.66 -0.96,0.98 -2,2.02c-0.36,0.36 -1.11,1.11 -1.48,1.5c-0.75,0.78 -1.13,1.17 -2.18,2.38c-0.34,0.39 -0.99,1.19 -1.61,1.96c-0.31,0.38 -1.2,1.48 -1.81,2.15c-0.58,0.64 -1.15,1.22 -1.72,1.72c-0.75,0.65 -1.47,1.08 -2.28,1.65c-0.82,0.58 -1.42,1.15 -1.86,1.52c-0.95,0.81 -1.51,1.18 -2.32,1.83c-0.55,0.44 -1.31,1.18 -1.77,1.71c-0.66,0.78 -1,1.35 -1.86,2.08c-0.58,0.5 -1.29,0.85 -2.28,1.45c-0.55,0.34 -1.4,0.89 -2.31,1.35c-0.88,0.44 -1.5,0.62 -2.31,1.05c-1.03,0.54 -1.43,1 -2.2,1.41c-1.08,0.57 -1.8,0.61 -2.53,0.71c-0.77,0.11 -1.96,0.31 -2.76,0.57c-0.83,0.26 -1.67,0.59 -2.11,0.73c-1.41,0.42 -1.93,0.49 -3,0.59c-0.56,0.05 -1.71,0.1 -2.29,0.11c-0.59,0.01 -2.39,0.01 -2.99,0.01c-0.6,0 -1.8,0 -2.4,0c-0.6,0 -2.4,0 -3,0c-0.6,0 -1.8,0 -2.4,0c-0.6,0 -1.8,0 -3,0c-0.6,0 -1.8,0 -2.4,0c-0.6,0 -1.8,0 -2.4,0c-1.2,0 -2.4,0 -3,0c-0.6,0 -1.8,0 -2.4,0c-0.6,0 -2.4,0 -3,0c-0.6,0 -1.82,0 -2.43,0c-0.62,0 -2.53,0 -3.19,0c-0.66,0 -1.33,0 -2,0c-1.35,0 -2.02,0 -2.69,0c-1.32,0 -1.96,0 -3.22,0c-0.61,0 -1.22,0 -2.4,0c-0.58,0 -2.24,0 -2.78,0c-1.06,0 -1.58,0 -2.64,0c-0.53,0 -2.17,0 -2.73,0c-0.57,0 -1.7,0 -2.26,0c-1.09,0 -2.13,0 -3.09,0c-0.9,0 -1.75,0 -2.57,0c-1.2,0 -2,-0.01 -2.8,0.02c-0.8,0.03 -2,0.13 -2.8,0.26c-0.79,0.13 -1.57,0.32 -2.32,0.52c-1.07,0.29 -1.74,0.48 -2.67,0.83c-0.62,0.23 -1.52,0.67 -2.42,1.2c-0.63,0.37 -1.27,0.78 -2.31,1.36c-0.73,0.41 -1.47,0.79 -2.23,1.14c-1.08,0.51 -1.77,0.78 -2.43,1.02c-0.65,0.23 -1.99,0.64 -2.71,0.84c-0.74,0.21 -1.5,0.41 -2.23,0.68c-1.08,0.4 -1.73,0.75 -2.64,1.29c-0.56,0.33 -1.55,0.96 -2.25,1.3c-0.68,0.34 -1.68,0.73 -2.52,1.02c-0.58,0.2 -1.78,0.6 -2.37,0.8c-0.87,0.3 -1.94,0.69 -2.66,1c-0.72,0.32 -1.78,0.87 -2.42,1.18c-0.7,0.34 -1.44,0.69 -2.23,0.95c-1.18,0.38 -2,0.46 -2.8,0.57c-0.8,0.11 -2.01,0.31 -2.8,0.57c-0.4,0.13 -1.2,0.46 -2,0.78c-1.2,0.49 -2,0.77 -2.79,1.01c-0.77,0.23 -1.53,0.43 -2.59,0.74c-0.99,0.28 -1.6,0.52 -2.82,0.73c-0.6,0.11 -1.5,0.15 -2.4,0.17c-0.9,0.01 -1.82,0 -2.47,0c-0.7,0 -1.87,0 -2.74,0c-0.91,0 -1.84,0 -2.31,0c-1.36,0 -2.24,0 -3.15,0c-0.47,0 -1.48,0 -2.6,0c-0.62,0 -1.96,0 -2.67,0c-0.73,0 -1.47,0 -2.23,0c-0.76,0 -2.27,0 -3.02,0c-0.74,0 -1.47,0 -2.21,-0.01c-1.48,-0.02 -2.22,-0.04 -2.98,-0.07c-1.56,-0.07 -2.37,-0.13 -3.2,-0.2c-0.84,-0.07 -1.69,-0.15 -2.55,-0.24c-0.86,-0.09 -1.73,-0.18 -2.6,-0.28c-1.72,-0.2 -2.56,-0.3 -3.4,-0.4c-0.83,-0.1 -1.65,-0.21 -2.46,-0.32c-0.81,-0.11 -1.62,-0.23 -2.42,-0.36c-1.6,-0.27 -2.4,-0.43 -3.2,-0.6c-0.8,-0.16 -1.59,-0.33 -2.38,-0.5c-0.78,-0.16 -1.56,-0.32 -2.34,-0.45c-1.52,-0.26 -2.26,-0.33 -3,-0.4c-0.73,-0.07 -1.45,-0.11 -2.16,-0.15c-0.71,-0.04 -1.42,-0.07 -2.12,-0.1c-1.4,-0.08 -2.1,-0.13 -2.8,-0.2c-0.7,-0.07 -1.39,-0.15 -2.08,-0.26c-1.37,-0.2 -2.04,-0.33 -3.35,-0.63c-0.65,-0.15 -1.28,-0.31 -2.53,-0.66c-0.62,-0.17 -1.22,-0.35 -1.83,-0.52c-1.8,-0.5 -2.4,-0.64 -3.01,-0.77c-1.21,-0.27 -1.82,-0.38 -2.43,-0.51c-0.62,-0.13 -2.53,-0.54 -3.19,-0.7c-0.66,-0.16 -1.33,-0.33 -1.99,-0.51c-0.67,-0.18 -1.98,-0.56 -2.62,-0.77c-1.24,-0.39 -1.83,-0.59 -2.95,-1c-0.54,-0.2 -1.56,-0.6 -2.05,-0.8c-1.4,-0.59 -1.85,-0.79 -2.71,-1.2c-0.84,-0.39 -1.65,-0.8 -2.06,-1c-1.2,-0.6 -1.99,-1 -2.76,-1.38c-0.73,-0.36 -1.71,-0.85 -2.53,-1.26c-0.69,-0.35 -1.52,-0.74 -2.31,-1.17c-0.61,-0.33 -1.61,-1.06 -2,-1.44c-0.62,-0.6 -1.41,-1.57 -1.8,-2.11c-0.39,-0.56 -0.95,-1.43 -1.38,-2.34c-0.43,-0.9 -0.64,-1.54 -0.91,-2.19c-0.43,-1.04 -0.77,-1.78 -1.16,-2.54c-0.41,-0.79 -1.12,-1.98 -1.38,-2.38c-0.52,-0.81 -1.07,-1.62 -1.32,-2.04c-0.51,-0.84 -0.96,-1.72 -1.29,-2.65c-0.33,-0.93 -0.44,-1.41 -0.61,-2.36c-0.24,-1.38 -0.29,-2.27 -0.31,-2.7c-0.05,-0.85 -0.05,-1.71 -0.06,-3.02c0,-0.92 0,-1.39 0,-2.38c0,-1.02 0,-1.54 0,-2.63c0,-1.12 0,-1.69 0,-2.83c0,-0.57 0,-1.15 0,-2.83c0,-0.55 0,-1.61 0,-2.63c0,-0.49 0,-1.46 0,-2.82c0,-0.43 0,-1.27 0,-2.08c0,-1.48 -0.01,-2.16 0.01,-2.82c0.03,-0.98 0.14,-1.99 0.27,-2.71c0.14,-0.75 0.32,-1.53 0.52,-2.32c0.29,-1.2 0.5,-2 0.7,-2.8c0.2,-0.8 0.5,-2 0.7,-2.8c0.2,-0.79 0.39,-1.57 0.6,-2.32c0.29,-1.07 0.58,-2.04 0.8,-2.6c0.46,-1.16 0.91,-1.77 1.57,-2.45c0.66,-0.67 1.21,-1.22 2.03,-1.81c0.58,-0.41 1.4,-0.81 2.2,-1.22c0.64,-0.33 1.38,-0.75 2.24,-1.34c0.67,-0.46 1.36,-0.97 2.05,-1.51c0.98,-0.77 1.53,-1.27 2.05,-1.71c0.75,-0.64 1.58,-1.25 2.22,-1.64c0.69,-0.41 1.45,-0.8 2.23,-1.2c1.19,-0.61 1.6,-0.8 2.39,-1.2c0.78,-0.4 1.53,-0.79 2.59,-1.4c0.67,-0.39 1.29,-0.8 2.22,-1.31c0.89,-0.49 1.5,-0.73 2.4,-1.11c0.6,-0.26 1.81,-0.85 2.4,-1.21c0.61,-0.37 1.2,-0.77 2.4,-1.56c0.62,-0.4 1.26,-0.82 1.97,-1.2c1.16,-0.63 1.6,-0.8 2.49,-1.2c0.46,-0.2 1.39,-0.59 2.77,-1.2c0.45,-0.2 1.31,-0.6 2.17,-1c0.43,-0.2 1.28,-0.61 2.62,-1.2c0.46,-0.2 1.41,-0.61 1.88,-0.82c0.95,-0.43 1.44,-0.63 2.78,-1.4c0.88,-0.5 1.28,-0.8 2.11,-1.32c0.8,-0.5 1.6,-0.95 2.41,-1.29c0.77,-0.33 1.54,-0.55 2.23,-0.85c1.23,-0.54 1.88,-1.13 2.48,-1.55c0.84,-0.57 1.83,-0.9 2.5,-1.27c0.51,-0.29 1.28,-0.8 2.31,-1.13c0.92,-0.29 2.02,-0.49 2.65,-0.74c0.71,-0.28 1.45,-0.63 2.23,-0.95c1.19,-0.48 2,-0.73 2.4,-0.85c0.8,-0.23 1.6,-0.44 2.8,-0.74c0.8,-0.2 1.6,-0.4 2.4,-0.54c1.2,-0.22 2,-0.28 2.8,-0.33c0.8,-0.05 1.6,-0.08 2.8,-0.25c0.79,-0.11 1.56,-0.29 2.29,-0.43c1.27,-0.24 2.06,-0.3 2.76,-0.41c1.24,-0.18 1.76,-0.39 2.54,-0.59c1.19,-0.32 1.89,-0.35 2.85,-0.35c0.77,0 1.76,0 2.56,0c1,0 1.8,0 2.8,0c0.8,0 1.8,0 2.58,0c1.05,0 0.51,0.11 -0.34,0c-0.9,-0.11 -1.66,-0.61 -2.44,-1c-0.8,-0.4 -1.4,-0.69 -2.4,-1.2c-0.77,-0.39 -1.6,-0.87 -2.19,-1.4c-0.75,-0.67 -1.29,-1.21 -2.07,-1.7c-0.74,-0.47 -1.56,-0.99 -2.13,-1.53c-0.58,-0.55 -1.18,-1.37 -1.71,-2.14c-0.38,-0.54 -1.15,-1.26 -1.85,-1.72c-0.77,-0.5 -1.53,-1.19 -2.1,-1.75c-0.57,-0.56 -1.35,-1.37 -2.15,-1.54c-0.82,-0.17 -1.91,-0.02 -2.77,-0.02c-0.66,0 -1.34,0 -2.59,0c-0.79,0 -1.55,0 -2.69,0c-0.67,0 -1.38,0 -2.47,0c-1.06,0 -1.73,0 -2.67,0c-1.21,0 -1.81,0 -2.71,0c-0.9,0 -1.8,0 -2.71,0c-0.63,0 -1.96,0 -2.67,0c-0.75,0 -1.53,0 -2.32,0c-1.2,0 -2,0.01 -2.8,-0.02c-0.8,-0.03 -2,-0.13 -2.8,-0.26c-0.79,-0.13 -1.56,-0.31 -2.32,-0.43c-1.4,-0.23 -2.06,-0.24 -3.04,-0.34c-1.02,-0.1 -1.73,-0.23 -2.49,-0.37c-0.8,-0.15 -1.64,-0.32 -2.97,-0.45c-0.46,-0.05 -1.41,-0.09 -2.39,-0.15c-0.49,-0.03 -1.99,-0.14 -2.49,-0.2c-1,-0.12 -2,-0.28 -2.5,-0.35c-1,-0.15 -2,-0.27 -3,-0.34c-0.99,-0.07 -1.48,-0.07 -2.44,-0.14c-1.39,-0.1 -1.84,-0.16 -2.7,-0.3c-0.82,-0.14 -1.59,-0.34 -3.04,-0.53c-0.66,-0.09 -1.3,-0.11 -2.22,-0.12c-1.2,-0.01 -1.8,0 -2.7,0c-1.2,0 -1.81,-0.03 -2.74,0.07c-0.65,0.07 -1.69,0.35 -2.41,0.64c-1.1,0.44 -1.78,0.81 -2.71,1.27c-0.79,0.4 -1.55,0.77 -2.38,1.19c-0.64,0.32 -1.33,0.66 -2.05,1.04c-0.73,0.39 -1.79,0.99 -2.46,1.38c-0.64,0.38 -1.54,0.94 -2.46,1.38c-0.9,0.43 -1.55,0.66 -2.19,0.99c-1.05,0.54 -1.77,1.04 -2.54,1.55c-0.39,0.26 -1.17,0.82 -2.38,1.56c-0.4,0.24 -1.19,0.69 -1.96,1.11c-0.75,0.41 -1.82,1 -2.48,1.42c-0.64,0.41 -1.27,0.83 -2.16,1.56c-0.61,0.5 -1.2,1.06 -1.8,1.61c-0.6,0.54 -1.5,1.31 -2.1,1.77c-0.6,0.46 -1.52,1.12 -2.4,1.87c-0.61,0.52 -1.18,1.08 -1.74,1.63c-0.8,0.78 -1.27,1.27 -1.94,1.93c-0.62,0.62 -1.23,1.21 -1.82,1.83c-0.61,0.64 -1.21,1.35 -1.8,2.14c-0.39,0.54 -0.93,1.36 -1.52,2.36c-0.39,0.66 -0.75,1.3 -1.37,2.09c-0.5,0.65 -1.08,1.35 -1.49,2.24c-0.31,0.65 -0.52,1.39 -0.83,2.11c-0.48,1.1 -0.95,1.77 -1.44,2.41c-0.49,0.63 -1.05,1.19 -1.78,2.44c-0.35,0.59 -0.6,1.24 -0.94,1.88c-0.55,1.05 -1.04,1.77 -1.55,2.54c-0.53,0.79 -0.82,1.17 -1.56,2.38c-0.48,0.79 -0.69,1.2 -1.15,2c-0.46,0.8 -1.19,2 -1.46,2.4c-0.53,0.79 -1.09,1.53 -1.36,1.89c-0.77,0.99 -1.5,1.8 -1.93,2.31c-0.63,0.76 -1.23,1.64 -1.63,2.31c-0.42,0.71 -0.84,1.45 -1.08,1.81c-0.71,1.08 -1.26,1.73 -1.84,2.36c-0.57,0.63 -1.48,1.52 -2.08,2.12c-0.61,0.59 -1.23,1.17 -1.56,1.44c-0.99,0.82 -1.72,1.28 -2.46,1.72c-0.72,0.43 -1.44,0.8 -2.34,1.44c-0.8,0.57 -1.24,1.02 -2.21,1.8c-0.51,0.41 -1.32,0.99 -1.88,1.29c-1,0.53 -1.94,0.66 -2.55,0.8c-1.01,0.22 -1.78,0.65 -2.8,0.83c-0.83,0.15 -1.77,0.1 -2.56,0.08c-0.92,-0.02 -1.61,-0.06 -2.78,-0.22c-0.87,-0.12 -1.33,-0.21 -2.28,-0.39c-0.98,-0.19 -1.98,-0.39 -2.98,-0.59c-0.51,-0.1 -1.56,-0.34 -2.1,-0.47c-0.56,-0.14 -2.39,-0.66 -3.06,-0.87c-0.69,-0.22 -1.4,-0.47 -2.13,-0.74c-0.75,-0.27 -1.5,-0.57 -2.26,-0.88c-0.76,-0.32 -2.28,-0.99 -3.02,-1.36c-0.74,-0.36 -1.46,-0.73 -2.16,-1.11c-0.7,-0.38 -1.38,-0.77 -2.04,-1.17c-0.65,-0.39 -1.89,-1.19 -2.48,-1.6c-0.57,-0.4 -1.66,-1.2 -2.18,-1.6c-0.51,-0.4 -1.01,-0.78 -2.4,-2c-0.45,-0.39 -0.89,-0.79 -1.71,-1.59c-0.4,-0.39 -1.14,-1.15 -1.49,-1.53c-0.95,-1.05 -1.47,-1.72 -1.93,-2.36c-0.44,-0.61 -1.04,-1.52 -1.64,-2.42c-0.4,-0.59 -0.77,-1.17 -1.6,-2.18c-0.39,-0.48 -1.02,-1.13 -1.8,-2.09c-0.41,-0.51 -0.8,-1.08 -1.24,-1.64c-0.91,-1.2 -1.44,-1.8 -2,-2.39c-0.57,-0.61 -0.87,-0.9 -1.76,-1.8c-0.6,-0.6 -1.21,-1.21 -1.8,-1.84c-0.61,-0.64 -1.21,-1.32 -1.8,-2.05c-0.61,-0.74 -0.9,-1.13 -1.5,-1.92c-0.9,-1.19 -1.2,-1.6 -1.8,-2.39c-0.3,-0.39 -0.89,-1.18 -1.5,-1.92c-0.88,-1.08 -1.2,-1.39 -1.78,-2.06c-0.56,-0.64 -1.11,-1.28 -1.68,-2.35c-0.37,-0.71 -0.61,-1.46 -0.89,-2.17c-0.4,-0.99 -0.9,-1.81 -1.46,-2.56c-0.39,-0.52 -1,-1.39 -1.39,-2.06c-0.41,-0.71 -0.79,-1.45 -1.4,-2.52c-0.39,-0.69 -0.8,-1.34 -1.16,-1.99c-0.36,-0.65 -0.96,-2.06 -1.2,-2.81c-0.24,-0.77 -0.33,-1.17 -0.64,-2.36c-0.2,-0.8 -0.4,-1.6 -0.6,-2.4c-0.2,-0.8 -0.5,-2 -0.7,-2.8c-0.2,-0.78 -0.39,-1.55 -0.7,-2.64c-0.29,-1.02 -0.5,-1.66 -0.64,-2.32c-0.29,-1.36 -0.31,-2.1 -0.34,-2.87c-0.03,-0.78 -0.02,-1.98 -0.02,-2.78c-0.01,-0.8 -0.01,-1.6 -0.08,-2.4c-0.11,-1.2 -0.27,-2 -0.41,-2.8c-0.15,-0.8 -0.35,-2 -0.41,-2.8c-0.07,-0.8 -0.08,-1.6 -0.08,-2.4c-0.01,-1.2 -0.01,-2 0.02,-2.8c0.03,-0.8 0.13,-2 0.26,-2.8c0.13,-0.8 0.31,-1.6 0.43,-2.4c0.19,-1.2 0.24,-2 0.26,-2.78c0.03,-0.76 0.02,-1.85 0.02,-2.54c0,-0.96 0,-1.58 0,-2.79c0,-0.89 0,-1.74 0,-2.78c0,-0.7 0.01,-1.61 0,-2.6c-0.01,-0.8 0.05,-1.6 -0.36,-2.51c-0.34,-0.75 -0.95,-1.46 -1.34,-2.21c-0.51,-0.99 -0.76,-1.6 -1.4,-2.57c-0.44,-0.67 -0.85,-1.5 -0.89,-2.2c-0.06,-1.06 0.2,-2.11 -0.34,-2.83c-0.4,-0.53 -1.26,-0.82 -1.91,-1.65c-0.51,-0.65 -0.94,-1.48 -1.51,-2.1c-0.7,-0.76 -1.26,-1.27 -1.84,-1.85c-0.8,-0.8 -1.22,-1.19 -1.8,-1.86c-0.83,-0.94 -1.2,-1.5 -1.6,-2.04c-0.6,-0.82 -1.19,-1.59 -1.8,-2.26c-0.59,-0.64 -1.2,-1.24 -1.8,-1.84c-0.6,-0.6 -1.41,-1.39 -2,-2c-0.61,-0.62 -1.02,-1.06 -1.8,-2.08c-0.41,-0.54 -0.8,-1.12 -1.2,-1.72c-0.8,-1.2 -1.2,-1.8 -1.6,-2.4c-0.4,-0.6 -1.2,-1.8 -1.6,-2.4c-0.4,-0.6 -0.8,-1.2 -1.4,-2.1c-0.58,-0.89 -1.02,-1.42 -1.47,-2.53c-0.28,-0.69 -0.33,-1.62 -0.33,-2.59c0,-0.81 0,-1.68 0,-2.58c0,-0.9 0,-1.76 0,-2.83c0,-0.71 -0.02,-1.58 0.29,-2.57c0.19,-0.62 0.71,-1.6 1.11,-2.4c0.3,-0.6 0.77,-1.62 1.14,-2.2c0.4,-0.62 1.22,-1.41 1.98,-2c0.53,-0.41 1.31,-1.01 2.03,-1.6c0.7,-0.57 1.19,-0.99 2.42,-1.52c0.69,-0.3 1.45,-0.5 2.23,-0.77c1.2,-0.42 1.6,-0.59 2.39,-0.94c0.78,-0.34 1.52,-0.71 2.59,-1.15c0.67,-0.28 1.68,-0.64 2.39,-0.91c1.17,-0.43 1.6,-0.6 2.49,-0.95c0.93,-0.37 1.4,-0.56 2.77,-1.16c0.45,-0.2 1.31,-0.59 2.13,-1c0.78,-0.39 1.88,-1 2.56,-1.4c0.65,-0.39 1.26,-0.78 1.88,-1.12c1.18,-0.63 1.79,-0.85 2.64,-1.18c1.04,-0.4 1.69,-0.75 2.47,-1.02c0.95,-0.33 1.93,-0.19 2.79,-0.64c0.75,-0.39 1.48,-0.64 2.35,-1c0.72,-0.3 1.51,-1.07 2.35,-1.48c0.71,-0.34 1.64,-0.55 2.4,-0.81c0.78,-0.27 1.61,-0.27 2.6,-0.52c0.82,-0.2 1.6,-0.63 2.4,-1.03c0.8,-0.4 1.61,-0.79 2.39,-1.2c0.73,-0.39 1.58,-0.99 2.21,-1.6c0.61,-0.59 1.34,-1.27 1.8,-1.89c0.55,-0.74 0.91,-1.5 1.12,-2.51c0.16,-0.79 0.29,-1.8 0.58,-2.58c0.32,-0.86 0.49,-1.65 0.5,-2.5c0.01,-0.86 0.09,-1.78 -0.17,-2.68c-0.25,-0.86 -0.56,-1.7 -0.89,-2.53c-0.29,-0.74 -1.21,-1.11 -2.11,-1.64c-0.53,-0.31 -1.18,-1.08 -2.03,-1.42c-0.76,-0.31 -1.8,-0.21 -2.6,-0.25c-0.8,-0.04 -1.81,-0.33 -2.6,-0.69c-0.81,-0.38 -1.55,-0.86 -2.43,-1.13c-0.77,-0.23 -1.82,-0.17 -2.57,-0.17c-1,0 -1.8,0 -2.8,0c-0.82,0 -1.49,0 -2.48,0c-0.8,0 -1.98,0 -2.8,0c-0.84,0 -1.73,0 -2.72,0c-0.78,0 -1.78,0 -2.55,0c-0.9,0 -1.76,0 -2.75,0c-0.82,0 -1.67,0 -2.62,0c-1.05,0 -1.72,0 -2.49,0c-0.99,0 -2.07,0.02 -2.97,0c-0.65,-0.02 -1.67,-0.13 -2.39,-0.52c-0.87,-0.47 -1.28,-1.31 -2.21,-1.65c-0.67,-0.24 -1.41,-0.55 -2.21,-1.25c-0.56,-0.5 -1.11,-1.35 -1.63,-2.08c-0.35,-0.49 -1.13,-1.52 -1.59,-2.11c-0.53,-0.69 -0.91,-1.4 -1.41,-2.39c-0.3,-0.6 -0.69,-1.4 -1.2,-2.4c-0.32,-0.62 -0.68,-1.29 -1.28,-2.28c-0.33,-0.54 -0.9,-1.33 -1.27,-2.39c-0.23,-0.66 -0.15,-1.76 -0.28,-2.55c-0.15,-0.88 -0.58,-1.58 -1.06,-2.57c-0.29,-0.59 -0.74,-1.29 -0.89,-2.39c-0.11,-0.81 -0.01,-1.73 -0.01,-2.62c0,-0.99 0,-1.79 0,-2.79c0,-0.8 -0.03,-1.6 0,-2.6c0.03,-0.75 0.39,-1.64 0.8,-2.37c0.43,-0.78 0.7,-1.52 0.91,-2.26c0.31,-1.1 0.61,-1.94 1.14,-2.59c0.57,-0.7 1.04,-1.56 1.32,-2.34c0.31,-0.87 0.62,-1.44 1.13,-2.43c0.39,-0.75 0.88,-1.54 1.4,-2.1c0.67,-0.73 1.4,-1.41 1.9,-1.9c0.7,-0.7 1.27,-1.23 2.06,-1.7c0.73,-0.43 1.74,-0.91 2.36,-1.2c0.66,-0.31 1.66,-0.71 2.5,-1c0.58,-0.2 1.78,-0.61 2.37,-0.8c0.87,-0.28 1.94,-0.54 2.86,-0.68c0.76,-0.11 1.63,-0.44 2.35,-1.13c0.56,-0.53 1.45,-0.71 2.2,-1.26c0.68,-0.49 0.9,-1.36 1.8,-1.64c0.77,-0.24 0.81,-1.09 1.23,-2c0.3,-0.64 1.06,-1.35 1.42,-2.2c0.32,-0.75 0.51,-1.75 0.89,-2.5c0.41,-0.8 0.59,-1.62 0.85,-2.33c0.36,-0.97 0.48,-1.78 0.5,-2.58c0.02,-0.99 0,-1.83 0,-2.84c0,-0.96 0,-1.86 0,-2.76c0,-0.85 0,-1.8 0,-2.56c0,-0.9 0,-1.76 0,-2.72c0,-0.83 -0.15,-1.88 -0.52,-2.5c-0.49,-0.83 -1.36,-1.13 -2.04,-1.52c-0.91,-0.53 -1.7,-0.45 -2.49,-0.55c-1.03,-0.14 -1.75,-0.33 -2.55,-0.83c-0.85,-0.53 -1.4,-1.15 -2.09,-1.63c-0.71,-0.5 -1.54,-0.86 -2.42,-1.18c-0.89,-0.32 -1.79,-0.6 -2.37,-0.8c-0.84,-0.29 -1.84,-0.69 -2.5,-1c-1.03,-0.48 -1.79,-0.94 -2.54,-1.21c-0.83,-0.31 -1.79,-0.29 -2.65,-0.29c-0.85,0 -1.83,0 -2.63,0c-0.8,0 -1.8,0 -2.6,0c-1,0 -1.8,0 -2.8,0c-0.78,0 -1.82,-0.17 -2.6,0.09c-0.82,0.27 -1.53,0.93 -2.21,1.21c-0.77,0.32 -1.83,0.69 -2.54,1c-0.91,0.39 -1.87,0.8 -2.41,1c-0.82,0.3 -1.89,0.69 -2.59,1c-0.86,0.38 -1.64,0.84 -2.48,1.18c-0.65,0.27 -1.66,0.44 -2.48,0.52c-0.82,0.08 -1.83,0.25 -2.69,0.61c-0.83,0.35 -1.58,0.84 -2.33,1.1c-0.96,0.34 -1.81,0.29 -2.7,0.29c-0.99,0 -1.83,0 -2.56,0c-0.87,0 -1.9,0 -2.65,0c-0.78,0 -1.98,0.01 -2.77,0c-0.78,-0.01 -1.55,-0.01 -2.64,-0.16c-1.01,-0.15 -1.63,-0.33 -2.48,-0.63c-1.01,-0.37 -1.7,-0.66 -2.69,-1.37c-0.63,-0.45 -1.14,-1.07 -2,-1.5c-0.75,-0.37 -1.59,-0.41 -2.25,-1.04c-0.59,-0.57 -1.23,-1.42 -1.93,-1.88c-0.79,-0.53 -1.44,-0.99 -2.13,-1.72c-0.47,-0.49 -1.18,-1.46 -1.51,-1.93c-0.48,-0.69 -1.14,-1.68 -1.63,-2.42c-0.41,-0.63 -0.94,-1.36 -1.31,-2.41c-0.24,-0.68 -0.25,-1.38 -0.46,-2.34c-0.18,-0.81 -0.47,-1.63 -0.88,-2.66c-0.28,-0.69 -0.66,-1.51 -0.85,-2.52c-0.14,-0.79 -0.34,-1.8 -0.55,-2.4c-0.35,-1 -0.48,-1.78 -0.5,-2.83c-0.02,-0.88 0,-1.58 0,-2.57c0,-0.94 -0.01,-1.85 0,-2.77c0.01,-0.83 0.24,-1.8 0.57,-2.42c0.43,-0.8 0.81,-1.7 1.23,-2.3c0.52,-0.75 0.73,-1.51 1.18,-2.48c0.37,-0.78 1.31,-1.1 1.85,-1.84c0.58,-0.79 0.94,-1.46 1.52,-2.16c0.59,-0.7 0.93,-1.39 1.75,-1.86c0.68,-0.4 1.28,-0.93 1.95,-1.43c0.69,-0.51 1.05,-1.03 1.75,-1.44c0.79,-0.45 1.53,-0.92 2.38,-0.92c0.93,0 1.77,-0.24 2.46,-0.65c0.75,-0.44 1.65,-0.35 2.58,-0.35c0.88,0 1.73,0.13 2.39,0.57c0.8,0.53 1.76,0.4 2.39,0.93c0.6,0.5 1.12,1.05 1.65,1.56c0.62,0.6 1.06,1.36 1.32,2.33c0.23,0.87 0.04,1.78 0.04,2.61c0,0.92 0,1.7 0,2.64l0,0.88" fill="none" id="svg_3" stroke="#000000"/>
 </g>
</svg>